<svg xmlns="http://www.w3.org/2000/svg" version="1.1" xmlns:xlink="http://www.w3.org/1999/xlink" xmlns:svgjs="http://svgjs.dev/svgjs" width="887" height="593.377"><svg xmlns="http://www.w3.org/2000/svg" width="887" height="593.377" viewBox="0 0 887 593.377">
  <g id="SvgjsG1424" data-name="Group 1" transform="translate(-199 -102)">
    <g id="SvgjsG1423" data-name="Layer 1" transform="translate(-57.164 -1106.3)">
      <path id="SvgjsPath1422" d="M375.541,1535.635c-8.924,2.481-16.97,8.026-24.431,16.491-7.461,8.61-11.118,18.1-11.118,28.312,0,6.421,2.194,13.718,6.437,21.453a38.375,38.375,0,0,0,19.018,17.22c2.78.584,4.1,2.043,4.1,4.086,0,.73-1.024,1.459-3.511,2.043a59.617,59.617,0,0,1-32.77-21.161,60.3,60.3,0,0,1-13.167-37.068,77.923,77.923,0,0,1,13.605-41.884q13.167-19.482,33.794-27.582L357.4,1445.738c-22.529,18.68-40.816,38.089-55.007,58.52q-21.286,30.428-22.091,66.109a86.852,86.852,0,0,0,6.583,30.938,84,84,0,0,0,18.433,27.436c16.531,16.491,38.037,25.1,64.224,25.977a156.891,156.891,0,0,0,28.674-4.816Zm10.533-1.459L408.9,1646.4c22.529-9.048,33.794-28.749,33.794-58.812a67.229,67.229,0,0,0-9.217-27.144,52.367,52.367,0,0,0-19.457-19.264A55.16,55.16,0,0,0,386.074,1534.175ZM356.084,1382.4c4.828-2.919,10.387-8.026,16.385-15.177a178.19,178.19,0,0,0,17.409-24.663,152.034,152.034,0,0,0,13.605-28.9,83.116,83.116,0,0,0,4.974-27.29,48.33,48.33,0,0,0-1.024-10.507c-.585-5.254-2.194-9.34-4.974-12.113a14.941,14.941,0,0,0-10.68-4.086q-13.167,0-23.7,16.2a130.552,130.552,0,0,0-13.167,32.982,161.821,161.821,0,0,0-5.559,37.943C350.086,1361.241,352.426,1373.062,356.084,1382.4Zm-9.217,8.464a301.871,301.871,0,0,1-10.972-72.238,211.1,211.1,0,0,1,4.828-44.219,131.734,131.734,0,0,1,12.728-35.754c5.413-10.216,11.7-17.95,18.726-23.2,6.291-4.67,10.826-7.151,13.313-7.151a7.234,7.234,0,0,1,4.974,2.043,58.586,58.586,0,0,1,5.706,6.421q26.114,36.995,26.187,89.167a182.7,182.7,0,0,1-6.583,48.6,180.633,180.633,0,0,1-18.872,45.24,164.33,164.33,0,0,1-29.991,37.359l11.85,57.5c6.437-.73,10.826-1.313,13.313-1.313a65.6,65.6,0,0,1,30.283,7.005,70.785,70.785,0,0,1,23.553,18.972,87.372,87.372,0,0,1,14.922,27.144,101.652,101.652,0,0,1,5.267,31.96,85.679,85.679,0,0,1-13.605,47.137c-9.07,14.156-22.676,24.517-40.963,31.23,1.17,7.151,3.218,17.512,6.291,30.793q4.389,20.139,6.583,31.96a124.6,124.6,0,0,1,2.048,22.912,56.5,56.5,0,0,1-31.307,51.807,67.1,67.1,0,0,1-31.453,7.443c-16.092,0-30.137-4.524-42.133-13.426-12-9.048-18.433-21.161-19.018-36.63a52.147,52.147,0,0,1,4.974-19.409,38.969,38.969,0,0,1,12-14.885,29.152,29.152,0,0,1,34.087-1.751,36.617,36.617,0,0,1,12.143,12.842,37.018,37.018,0,0,1,4.535,17.8,30.13,30.13,0,0,1-8.778,21.891c-5.852,5.983-13.313,9.048-22.237,9.048H335.9c5.706,8.756,15.068,13.28,28.089,13.28a55.254,55.254,0,0,0,20.042-4.086,53.067,53.067,0,0,0,17.409-11.091c4.828-4.67,8.046-9.632,9.363-14.885,2.487-5.983,3.657-14.3,3.657-24.663a113.646,113.646,0,0,0-2.048-21.015c-1.317-6.859-3.365-16.053-6.144-27.436-2.78-11.237-4.828-19.993-6-25.977a112.361,112.361,0,0,1-27.357,3.356,106.285,106.285,0,0,1-45.205-9.778,118.3,118.3,0,0,1-37.452-27.29,130.432,130.432,0,0,1-25.016-39.695,127.7,127.7,0,0,1-9.07-46.262A130.084,130.084,0,0,1,264.8,1499a182.074,182.074,0,0,1,20.335-38.381,319.03,319.03,0,0,1,25.894-32.69C320.1,1418.3,331.945,1405.9,346.867,1390.866Z" fill="#daa520" fill-rule="evenodd"></path>
    </g>
    <text id="SvgjsText1421" transform="translate(421 550)" font-size="301" font-family="Montserrat-Regular, Montserrat" svgjs:data="{&quot;leading&quot;:&quot;1.3&quot;}"><tspan x="0" y="0">osse</tspan></text>
  </g>
</svg><style>@media (prefers-color-scheme: light) { :root { filter: none; } }
@media (prefers-color-scheme: dark) { :root { filter: none; } }
</style></svg>